<svg width="90" height="21" viewBox="0 0 90 21" fill="none" xmlns="http://www.w3.org/2000/svg">
<path d="M76.9736 20.1248V4.74243H80.0848V6.79149C81.1316 5.14647 82.7599 4.33839 84.7662 4.33839C87.9937 4.33839 89.9999 6.21429 89.9999 9.85065V20.1248H86.9178V10.4856C86.9178 8.26335 85.9292 6.90693 83.8066 6.90693C81.4805 6.90693 80.0848 8.95599 80.0848 11.0916V20.1248H76.9736Z" fill="black"/>
<path d="M63.157 9.76407H60.0458C60.5401 6.35859 62.8953 4.33839 66.7625 4.33839C70.9786 4.33839 73.0721 6.79149 73.0721 10.3701V16.373C73.0721 18.2201 73.2466 19.2879 73.5955 20.1248H70.3389C70.1063 19.5476 70.0191 18.7395 69.99 17.8737C68.6816 19.6919 66.6753 20.5 64.8144 20.5C61.6741 20.5 59.5225 19.0281 59.5225 16.0844C59.5225 13.9776 60.6855 12.4192 63.0117 11.64C65.0761 10.9473 67.1696 10.7742 69.961 10.7453V10.399C69.961 8.14791 68.9142 6.93579 66.5299 6.93579C64.5236 6.93579 63.4478 8.03247 63.157 9.76407ZM62.6627 15.969C62.6627 17.2677 63.7386 18.0758 65.3959 18.0758C67.9837 18.0758 69.961 16.0267 69.961 13.5447V12.8521C64.0003 12.9098 62.6627 14.2085 62.6627 15.969Z" fill="black"/>
<path d="M34.835 20.1248V4.74243H37.9462V6.70491C38.9348 5.11761 40.4758 4.33839 42.3076 4.33839C44.3721 4.33839 45.9131 5.23305 46.6691 6.99351C47.6868 5.23305 49.3732 4.33839 51.4086 4.33839C54.4617 4.33839 56.4389 6.21429 56.4389 9.85065V20.1248H53.3277V10.4856C53.3277 8.26335 52.4844 6.90693 50.5654 6.90693C48.4719 6.90693 47.1925 8.95599 47.1925 11.0916V20.1248H44.0813V10.4856C44.0813 8.26335 43.209 6.90693 41.319 6.90693C39.2255 6.90693 37.9462 8.95599 37.9462 11.0916V20.1248H34.835Z" fill="black"/>
<path d="M24.5662 20.5C20.0594 20.5 17.3262 17.4697 17.3262 12.4481C17.3262 7.22439 20.1466 4.33839 24.5662 4.33839C29.0731 4.33839 31.8063 7.42641 31.8063 12.4481C31.8063 17.6429 28.9859 20.5 24.5662 20.5ZM24.5662 17.9026C27.2122 17.9026 28.637 15.9978 28.637 12.4481C28.637 8.92713 27.1831 6.93579 24.5662 6.93579C21.9493 6.93579 20.4955 8.86941 20.4955 12.4481C20.4955 15.9401 21.9493 17.9026 24.5662 17.9026Z" fill="black"/>
<path d="M1.04679e-05 20.1248L1.43501e-05 17.5274L1.04679e-05 14.8723L0 10.4567L1.43501e-05 8.00361L1.04679e-05 0.5H7.41454C11.6888 0.5 14.3929 2.69336 14.3929 6.15657C14.3929 8.37879 13.3752 9.93723 11.6016 10.803C12.7646 11.4091 13.4043 12.4769 13.8405 14.2374L15.3234 20.1248H11.8923L10.7002 14.8723C10.1768 12.6212 8.72297 12.3326 6.97838 12.3326C6.97838 12.3326 4.36149 12.3326 3.77996 13.1984C3.19842 14.0642 3.25659 16.1566 3.25659 16.1566V20.1248H1.04679e-05ZM7.32731 3.0974H3.25659H1.04679e-05L1.43501e-05 4.62698L1.04679e-05 5.1176H3.25659V8.00361H1.43501e-05L1.04679e-05 14.8723C2.59504e-06 9.77703 4.65224 9.59091 7.26916 9.59091C9.88607 9.59091 11.0491 8.32107 11.0491 6.32973C11.0491 4.36724 9.68251 3.0974 7.32731 3.0974Z" fill="black"/>
</svg>
